<svg xmlns="http://www.w3.org/2000/svg" viewBox="0 0 106.66 74.18"><defs><style>.cls-1{fill:#f47923;}.cls-2{fill:#e6e7e8;}.cls-3{fill:#414042;}</style></defs><g id="Layer_2" data-name="Layer 2"><g id="Layer_1-2" data-name="Layer 1"><path class="cls-1" d="M101.14,51.94a5.79,5.79,0,0,1-2.56,1.82,3.45,3.45,0,0,0-1.37.77H43.94V16.74h53a36.3,36.3,0,0,1,5,13.27c.16.82.1,1.65,1.23,2.06a5.3,5.3,0,0,1,3.54,5A19.29,19.29,0,0,1,101.14,51.94Z"/><path class="cls-2" d="M106.61,37.12a5.3,5.3,0,0,0-3.54-5c-1.13-.41-1.07-1.24-1.23-2.06a36.3,36.3,0,0,0-5-13.27,35.87,35.87,0,0,0-61.24,1.05l0,0a.63.63,0,0,1-.07.1,27.25,27.25,0,0,0-2.72,5.77c-.78,2.75-1.62,4.51-1.73,6.16,0,.59-.07,1.19-.11,1.68v0a1.33,1.33,0,0,1,0,.4q0,.51-.06,1c-.75,10.86,2.8,20.22,10.53,28.32a7.49,7.49,0,0,1-2.74-.82c-5.94-2.31-11.86-4.57-18.26-5.32A24.83,24.83,0,0,0,0,61.66a24.56,24.56,0,0,1,10.11-2.09c6.79.15,13.1,2.35,19.38,4.59,8.39,3,16.68,6.3,25.39,8.29,14.48,3.32,28.36,2,41.45-5.34.41-.23.92-.31,1.22-1.09a59.5,59.5,0,0,1-19,4.3c-.34,0-.73.15-1-.19.16-.59.75-.57,1.18-.73A35.45,35.45,0,0,0,96.21,55.72a5.35,5.35,0,0,1,1-1.19,3.45,3.45,0,0,1,1.37-.77,5.79,5.79,0,0,0,2.56-1.82A19.29,19.29,0,0,0,106.61,37.12Zm-4.67,2.11a14.64,14.64,0,0,1-1.48,5c-2.82,6.07-5.29,6.9-11.12,3.6A21.92,21.92,0,0,0,79.18,45C77.12,45,75.06,45,73,44.92a24.45,24.45,0,0,1-10.79-2.74c-5.48-2.86-9.15-7-9.46-12.95,0-6.79,4.66-10.52,10.74-9.09a21.07,21.07,0,0,1,11.16,7.13c3.37,3.93,6.57,8,9.92,11.93,2.55,3,3.57,3.06,6.72.75,1-.73,2-1.45,3.07-2.15A13.47,13.47,0,0,1,98,36C100.91,35.13,102.23,36.24,101.94,39.23Z"/><path class="cls-1" d="M35.56,17.93a27.25,27.25,0,0,0-2.72,5.77c-.78,2.75-1.62,4.51-1.73,6.16,0,.59-.07,1.19-.11,1.68-.05-.65-.44-.68-1.17-.44a11.2,11.2,0,0,1-5.72.08c-2.57-.51-5.17-1.7-7.62.51-1.19-5.71,1.43-9.44,6.75-10a20.68,20.68,0,0,1,5.77.2,4.13,4.13,0,0,0,2.15.06c-1-.7-1.74-1.23-2.47-1.79A22.56,22.56,0,0,1,21.53,12,8.42,8.42,0,0,1,22,3.26c.46-.68.88-1,1.17.12A10.36,10.36,0,0,0,28,9.56a13.44,13.44,0,0,1,5.92,9C34,18.86,35.1,18.49,35.56,17.93Z"/><path class="cls-3" d="M82.82,42.25c-3.5-3.13-6.22-6.83-9-10.49a7.63,7.63,0,0,0-11-1.16,18.6,18.6,0,0,1,8.88,4.17c.93.81,2,1.4.54,2.85-.93.91.09,3.26,1.67,4.51s4,1.52,4.92.14C80,40.56,81,41.08,82.19,42A4,4,0,0,0,82.82,42.25Zm-9.13-2.59a.92.92,0,0,1-.89-.95.88.88,0,0,1,.86-1,.94.94,0,0,1,1,1C74.7,39.35,74.25,39.55,73.69,39.66Z"/><path class="cls-3" d="M89.89,43.27a21.07,21.07,0,0,0,1.64,2.09,2.41,2.41,0,0,0,2.91.52,1.93,1.93,0,0,0,1.16-2.46c-.23-.74.11-1,.69-1.25a16.56,16.56,0,0,1,3.57-1c.51-.09,1.21-.09,1.14-.93a1.29,1.29,0,0,0-1.29-1.32,5.58,5.58,0,0,0-3.19.84C94.38,40.86,92.26,42,89.89,43.27Z"/><path class="cls-2" d="M35.63,17.83,30.94,33l0,0s0-.61.08-1.46v0c0-.49.07-1.09.11-1.68.11-1.65,1-3.41,1.73-6.16a27.25,27.25,0,0,1,2.72-5.77A.63.63,0,0,0,35.63,17.83Z"/></g></g></svg>